<svg xmlns="http://www.w3.org/2000/svg" width="960" height="540" viewBox="0 0 960 540">
  <rect width="960" height="540" fill="#fbfaf7"/>
  <text x="56" y="48" font-family="Arial, sans-serif" font-size="25" font-weight="700" fill="#172033">固定應力與溫度下的典型潛變曲線</text>
  <line x1="100" y1="450" x2="890" y2="450" stroke="#263248" stroke-width="3"/>
  <line x1="100" y1="450" x2="100" y2="82" stroke="#263248" stroke-width="3"/>
  <text x="830" y="492" font-family="Arial, sans-serif" font-size="18" fill="#263248">時間 t</text>
  <text x="35" y="94" font-family="Arial, sans-serif" font-size="18" fill="#263248">應變 ε</text>
  <path d="M100 425 C155 335 225 307 310 292 C420 272 550 250 650 229 C746 209 790 166 825 82"
        fill="none" stroke="#d84a3a" stroke-width="6"/>
  <line x1="310" y1="110" x2="310" y2="450" stroke="#999" stroke-width="2" stroke-dasharray="7 6"/>
  <line x1="650" y1="110" x2="650" y2="450" stroke="#999" stroke-width="2" stroke-dasharray="7 6"/>
  <text x="166" y="480" font-family="Arial, sans-serif" font-size="17" font-weight="700" fill="#172033">第一階段</text>
  <text x="435" y="480" font-family="Arial, sans-serif" font-size="17" font-weight="700" fill="#172033">第二階段</text>
  <text x="715" y="480" font-family="Arial, sans-serif" font-size="17" font-weight="700" fill="#172033">第三階段</text>
  <text x="150" y="258" font-family="Arial, sans-serif" font-size="16" fill="#555">速率下降</text>
  <text x="420" y="226" font-family="Arial, sans-serif" font-size="16" fill="#555">近似穩態速率</text>
  <text x="714" y="142" font-family="Arial, sans-serif" font-size="16" fill="#555">損傷加速</text>
  <line x1="400" y1="300" x2="568" y2="269" stroke="#287bb5" stroke-width="3"/>
  <text x="440" y="329" font-family="Arial, sans-serif" font-size="17" fill="#287bb5">斜率 = ε̇ₛ</text>
</svg>
